<?xml version="1.0" encoding="UTF-8" standalone="no"?>
<svg
   xmlns:dc="http://purl.org/dc/elements/1.1/"
   xmlns:cc="http://creativecommons.org/ns#"
   xmlns:rdf="http://www.w3.org/1999/02/22-rdf-syntax-ns#"
   xmlns:svg="http://www.w3.org/2000/svg"
   xmlns="http://www.w3.org/2000/svg"
   xmlns:xlink="http://www.w3.org/1999/xlink"
   xmlns:sodipodi="http://sodipodi.sourceforge.net/DTD/sodipodi-0.dtd"
   xmlns:inkscape="http://www.inkscape.org/namespaces/inkscape"
   sodipodi:docname="2centsIcon.svg"
   inkscape:version="1.0 (4035a4f, 2020-05-01)"
   id="svg4113"
   version="1.1"
   viewBox="0 0 210 297"
   height="297mm"
   width="210mm">
  <defs
     id="defs4107">
    <linearGradient
       gradientTransform="translate(-2491.0609,-2928.4919)"
       gradientUnits="userSpaceOnUse"
       y2="3057.8828"
       x2="2612.5127"
       y1="2978.4231"
       x1="2533.053"
       id="linearGradient1739-4"
       xlink:href="#linearGradient1569"
       inkscape:collect="always" />
    <linearGradient
       inkscape:collect="always"
       id="linearGradient1569">
      <stop
         style="stop-color:#ef9feb;stop-opacity:1"
         offset="0"
         id="stop1565" />
      <stop
         id="stop1590"
         offset="0.48971918"
         style="stop-color:#bf9feb;stop-opacity:1" />
      <stop
         style="stop-color:#9fa5eb;stop-opacity:1"
         offset="1"
         id="stop1567" />
    </linearGradient>
  </defs>
  <sodipodi:namedview
     inkscape:window-maximized="0"
     inkscape:window-y="25"
     inkscape:window-x="0"
     inkscape:window-height="753"
     inkscape:window-width="1252"
     showgrid="false"
     inkscape:document-rotation="0"
     inkscape:current-layer="layer1"
     inkscape:document-units="mm"
     inkscape:cy="560"
     inkscape:cx="400"
     inkscape:zoom="0.33347386"
     inkscape:pageshadow="2"
     inkscape:pageopacity="0.0"
     borderopacity="1.0"
     bordercolor="#666666"
     pagecolor="#ffffff"
     id="base" />
  <metadata
     id="metadata4110">
    <rdf:RDF>
      <cc:Work
         rdf:about="">
        <dc:format>image/svg+xml</dc:format>
        <dc:type
           rdf:resource="http://purl.org/dc/dcmitype/StillImage" />
        <dc:title></dc:title>
      </cc:Work>
    </rdf:RDF>
  </metadata>
  <g
     id="layer1"
     inkscape:groupmode="layer"
     inkscape:label="Layer 1">
    <path
       id="rect1525-8-0"
       style="font-style:normal;font-variant:normal;font-weight:900;font-stretch:normal;font-size:14.1111px;line-height:1.25;font-family:'Arial Black';-inkscape-font-specification:'Arial Black, Heavy';font-variant-ligatures:normal;font-variant-caps:normal;font-variant-numeric:normal;font-variant-east-asian:normal;fill:url(#linearGradient1739-4);fill-opacity:1;stroke:none;stroke-width:40;stroke-linecap:round;stroke-linejoin:round;stroke-miterlimit:4;stroke-dasharray:none;paint-order:fill markers stroke"
       d="m 53.563761,49.926119 h 56.316069 c 6.41078,0 11.5718,5.161021 11.5718,11.571797 v 56.316074 c 0,6.41077 -5.16102,11.5718 -11.5718,11.5718 H 53.563761 c -6.410775,0 -11.571796,-5.16103 -11.571796,-11.5718 V 61.497916 c 0,-6.410776 5.161021,-11.571797 11.571796,-11.571797 z" />
    <g
       transform="translate(108.26852,26.976126)"
       aria-label="2"
       id="text1521-5-4-5"
       style="font-style:normal;font-variant:normal;font-weight:800;font-stretch:normal;font-size:84.6693px;line-height:1.25;font-family:Raleway;-inkscape-font-specification:'Raleway, Ultra-Bold';font-variant-ligatures:normal;font-variant-caps:normal;font-variant-numeric:normal;font-variant-east-asian:normal;fill:#ffffff;fill-opacity:1;stroke-width:0.210019">
      <path
         d="m -47.799453,87.276413 q 0,-3.979457 0.592685,-7.112221 0.677354,-3.132764 2.116732,-5.672843 1.524048,-2.624748 3.979457,-4.82615 2.540079,-2.286071 6.350198,-4.318134 3.979457,-2.116732 6.604205,-3.55611 2.709417,-1.524048 4.318134,-2.540079 1.608716,-1.016032 2.201401,-1.947394 0.677355,-1.016031 0.677355,-2.201402 0,-1.608716 -0.762024,-2.794086 -0.762023,-1.185371 -2.201402,-1.778056 -1.439378,-0.677354 -3.55611,-0.677354 -1.693386,0 -3.217433,0.423346 -1.524048,0.423347 -2.963426,1.27004 -1.354708,0.846693 -2.624748,2.032063 -1.270039,1.100701 -2.540079,2.540079 l -8.551599,-9.990977 q 1.439378,-1.439378 3.64078,-2.878756 2.286071,-1.439378 5.164827,-2.540079 2.878756,-1.18537 6.265528,-1.862724 3.471441,-0.762024 7.19689,-0.762024 6.09619,0 10.244985,1.862724 4.233465,1.778056 6.4348667,5.080158 2.2014017,3.302103 2.2014017,7.789575 0,2.878756 -0.9313622,5.080158 -0.846693,2.116733 -2.286071,3.810118 -1.4393782,1.693386 -3.3021022,3.048095 -1.778056,1.354709 -3.556111,2.45541 -2.032063,1.016031 -3.810118,2.032063 -1.778055,0.931362 -3.302103,1.862724 -1.524047,0.846693 -2.878756,1.862725 -1.270039,0.931362 -2.455409,2.116732 h 23.4533947 v 12.192379 z"
         style="font-style:normal;font-variant:normal;font-weight:800;font-stretch:normal;font-size:84.6693px;font-family:Raleway;-inkscape-font-specification:'Raleway, Ultra-Bold';font-variant-ligatures:normal;font-variant-caps:normal;font-variant-numeric:normal;font-variant-east-asian:normal;fill:#ffffff;fill-opacity:1;stroke-width:0.210019"
         id="path4069" />
    </g>
  </g>
</svg>
